<?xml version="1.0" standalone="no"?>
<!DOCTYPE svg PUBLIC "-//W3C//DTD SVG 20010904//EN"
 "http://www.w3.org/TR/2001/REC-SVG-20010904/DTD/svg10.dtd">
<svg version="1.0" xmlns="http://www.w3.org/2000/svg"
 width="474.000000pt" height="474.000000pt" viewBox="0 0 474.000000 474.000000"
 preserveAspectRatio="xMidYMid meet">
<metadata>
Created by potrace 1.14, written by Peter Selinger 2001-2017
</metadata>
<g transform="translate(0.000000,474.000000) scale(0.100000,-0.100000)"
fill="#000000" stroke="none">
<path d="M2260 3544 c-186 -40 -344 -144 -450 -299 -50 -73 -127 -234 -190
-400 -32 -82 -92 -228 -134 -323 -117 -265 -128 -308 -134 -539 -4 -178 -6
-193 -23 -193 -36 0 -71 -42 -76 -93 -11 -95 44 -179 119 -183 35 -1 43 -6 54
-33 19 -45 72 -122 103 -149 151 -134 550 -278 802 -289 109 -5 120 -4 170 19
70 32 131 95 171 175 17 35 34 63 39 63 4 0 59 -20 122 -45 160 -62 235 -78
326 -70 41 3 86 12 101 20 67 35 170 188 215 320 23 66 21 163 -3 218 -43 95
-115 131 -203 103 -44 -15 -52 -15 -79 -1 -26 13 -28 18 -20 41 6 14 10 35 10
47 0 12 29 61 64 108 54 73 69 87 99 93 54 10 153 64 183 99 60 71 82 176 55
259 -14 43 -100 127 -162 158 -24 12 -45 24 -47 25 -3 2 54 136 98 230 53 115
91 216 88 232 -2 11 -12 18 -27 18 -22 0 -35 -23 -128 -229 -57 -127 -104
-231 -106 -232 -1 -1 -27 3 -58 9 l-56 10 -6 131 c-6 149 -28 269 -62 340 -24
49 -24 50 -4 74 23 29 24 53 4 91 -21 41 -66 57 -117 42 -38 -12 -42 -11 -67
12 -40 38 -130 92 -192 115 -113 42 -348 55 -479 26z m430 -29 c104 -32 191
-85 276 -170 107 -107 138 -157 165 -268 17 -73 23 -132 27 -289 2 -109 8
-198 13 -198 5 0 9 23 9 51 l0 51 48 -7 c26 -4 50 -10 53 -13 4 -4 -7 -35 -22
-69 -23 -49 -37 -67 -67 -82 -52 -26 -108 -91 -123 -141 -10 -31 -10 -52 -1
-91 7 -28 12 -55 12 -60 0 -5 -26 -9 -58 -9 l-58 0 32 66 c53 109 52 189 -2
254 -39 46 -50 36 -12 -11 29 -37 33 -48 33 -104 0 -51 -6 -74 -35 -131 l-36
-69 -129 3 c-72 2 -197 9 -280 17 -198 20 -182 22 -195 -25 -6 -22 -20 -61
-30 -86 l-20 -45 -59 31 c-90 48 -165 121 -200 193 -24 48 -31 56 -31 36 0
-37 63 -127 125 -177 29 -23 96 -65 148 -93 106 -55 150 -97 145 -138 -3 -25
-6 -26 -57 -24 -40 2 -52 0 -44 -8 6 -6 32 -12 57 -13 25 0 46 -2 46 -4 0 -8
-41 -81 -47 -85 -5 -3 -26 -6 -48 -8 -57 -4 -67 -13 -20 -19 l40 -6 -35 -22
c-82 -52 -232 -67 -374 -37 -145 31 -313 158 -374 285 -35 72 -62 167 -62 217
0 17 -4 35 -10 38 -15 9 -12 -62 5 -130 26 -104 78 -195 147 -261 109 -104
232 -164 369 -180 l60 -7 -26 -27 c-15 -15 -23 -30 -18 -33 4 -3 62 -11 128
-18 66 -7 122 -14 124 -15 2 -2 -13 -22 -33 -45 -37 -44 -44 -59 -26 -59 6 0
10 4 10 9 0 19 128 145 165 162 23 11 62 18 90 18 l50 -1 -42 -14 c-23 -9 -62
-33 -88 -56 -52 -46 -106 -138 -80 -138 8 0 12 -6 9 -14 -5 -14 20 -46 37 -46
5 0 17 16 26 35 16 33 15 36 -2 55 -14 15 -21 17 -32 9 -21 -18 -15 2 13 42
36 52 91 87 157 101 55 12 57 11 93 -18 57 -46 74 -86 74 -175 0 -71 -22 -166
-52 -224 -27 -52 -93 -116 -144 -141 -53 -26 -59 -27 -177 -21 -274 12 -701
176 -812 311 -106 129 -151 328 -143 630 6 209 20 261 139 529 45 100 99 232
121 292 22 61 73 178 113 260 61 125 84 162 141 224 111 120 234 189 389 220
77 15 349 6 415 -14z m395 -160 c28 -27 32 -62 11 -90 -13 -18 -16 -17 -62 34
-58 64 -60 68 -37 74 41 11 65 6 88 -18z m455 -222 c0 -22 -37 -93 -48 -93 -9
0 -8 9 4 38 9 20 18 43 21 50 6 13 23 17 23 5z m-70 -153 c0 -5 -5 -10 -11
-10 -5 0 -7 5 -4 10 3 6 8 10 11 10 2 0 4 -4 4 -10z m-90 -226 c-69 -154 -104
-214 -117 -201 -3 4 155 360 171 385 5 9 12 10 17 5 6 -6 -22 -80 -71 -189z
m40 -124 c99 -51 153 -128 153 -221 0 -106 -69 -197 -181 -239 -30 -12 -56
-19 -58 -17 -2 2 12 25 32 51 20 26 34 49 31 52 -2 2 -46 -2 -98 -11 -109 -17
-203 -20 -194 -5 3 6 24 10 46 10 27 0 38 4 33 11 -4 7 -22 9 -49 5 -38 -6
-43 -5 -49 16 -3 13 -6 38 -6 56 0 30 2 32 38 33 20 0 46 4 57 9 24 10 15 12
-43 10 l-43 -2 14 29 c33 63 119 111 249 140 42 9 75 20 72 25 -3 5 -13 7 -22
4 -10 -2 -31 -7 -49 -11 l-32 -6 17 40 c19 47 28 49 82 21z m-835 -409 c277
-26 601 -22 738 8 20 5 37 6 37 3 0 -3 -44 -64 -98 -136 -115 -153 -216 -300
-257 -372 l-29 -52 -90 -22 c-104 -26 -236 -38 -236 -22 0 6 -23 22 -52 36
-88 44 -206 28 -275 -36 -21 -19 -29 -20 -129 -14 -134 9 -139 11 -116 42 12
17 27 23 52 24 86 0 195 45 247 101 32 35 63 108 63 150 0 47 -34 97 -85 126
-22 12 -40 26 -40 30 0 4 12 41 25 82 l25 73 60 -6 c33 -3 105 -10 160 -15z
m566 -342 c-14 -39 -14 -52 -1 -44 5 3 19 1 31 -5 20 -11 20 -12 3 -31 -27
-30 -8 -34 26 -6 39 33 99 52 136 43 l28 -7 -41 -19 c-53 -23 -119 -83 -155
-139 -29 -47 -34 -61 -20 -61 5 0 14 12 21 27 12 26 13 27 23 8 16 -30 16 -30
38 -10 24 22 26 54 3 70 -15 11 -11 16 32 48 62 44 120 63 141 46 23 -19 43
-62 55 -118 8 -40 7 -62 -6 -113 -32 -126 -137 -302 -203 -340 -16 -10 -62
-20 -108 -24 -94 -7 -152 6 -324 72 l-115 45 0 112 c0 89 -4 118 -17 139 l-17
25 60 7 c136 14 269 58 269 89 0 14 142 228 147 223 3 -3 0 -19 -6 -37z
m-1779 -201 c10 -51 20 -105 24 -120 5 -24 3 -28 -15 -28 -63 0 -111 65 -111
152 0 47 30 88 65 88 18 0 22 -11 37 -92z m1003 -228 c-4 -12 -9 -19 -12 -17
-3 3 -2 15 2 27 4 12 9 19 12 17 3 -3 2 -15 -2 -27z"/>
<path d="M2164 3411 c-42 -25 -74 -68 -74 -98 0 -27 27 -90 42 -99 20 -12 19
6 -1 32 -30 38 -27 85 7 122 41 44 72 49 123 20 55 -30 68 -65 44 -119 -10
-22 -15 -42 -12 -46 12 -11 46 82 40 108 -8 33 -42 69 -80 85 -42 18 -52 18
-89 -5z"/>
<path d="M2440 2650 c-27 -50 16 -98 54 -61 16 17 18 26 10 48 -12 36 -48 43
-64 13z"/>
<path d="M2931 2642 c-5 -10 -7 -29 -4 -41 4 -17 12 -21 32 -19 22 3 26 8 26
38 0 28 -4 36 -22 38 -13 2 -26 -4 -32 -16z"/>
<path d="M2654 2538 c-18 -6 -38 -21 -45 -35 -12 -23 -11 -27 9 -43 37 -30
126 -44 200 -32 109 18 137 52 79 96 -24 17 -44 21 -120 23 -51 1 -106 -3
-123 -9z"/>
<path d="M2492 1540 c-24 -39 -3 -98 30 -85 22 9 41 58 33 84 -8 27 -46 28
-63 1z m34 -36 c-5 -19 -10 -24 -17 -17 -8 8 -7 18 1 33 15 28 24 19 16 -16z"/>
<path d="M2616 1535 c-22 -22 -25 -69 -5 -89 14 -15 49 24 49 54 0 38 -23 56
-44 35z m15 -52 c-10 -17 -10 -16 -11 3 0 23 13 41 18 25 2 -6 -1 -18 -7 -28z"/>
<path d="M2473 1420 c-28 -11 -63 -66 -63 -98 0 -13 7 -36 15 -52 13 -25 22
-30 50 -30 78 0 125 111 70 165 -26 27 -37 29 -72 15z m65 -66 c5 -65 -50
-118 -86 -82 -23 23 -9 99 22 121 6 4 22 6 36 5 22 -3 25 -9 28 -44z"/>
<path d="M3331 1734 c-45 -57 -10 -114 36 -59 27 31 28 78 2 83 -9 2 -26 -9
-38 -24z m24 -34 c-4 -12 -9 -19 -12 -17 -3 3 -2 15 2 27 4 12 9 19 12 17 3
-3 2 -15 -2 -27z"/>
<path d="M3406 1676 c-9 -14 -16 -37 -16 -51 0 -22 4 -26 22 -23 30 4 57 52
42 75 -16 26 -30 26 -48 -1z m28 -30 c-3 -9 -10 -16 -15 -16 -6 0 -5 9 1 21
13 24 24 20 14 -5z"/>
<path d="M3243 1565 c-33 -33 -35 -39 -30 -82 3 -29 12 -52 23 -60 62 -45 150
42 124 123 -21 63 -66 70 -117 19z m91 -11 c25 -64 -40 -152 -82 -111 -20 21
-20 69 2 101 19 30 70 36 80 10z"/>
</g>
</svg>
